# xmcd
#
# Track frame offsets:
#	150
#	17252
#	36809
#	53198
#	66845
#	79960
#	93624
#	106775
#	125037
#	138293
#	156640
#	172468
#	186498
#	203117
#	219324
#	232463
#	249487
#	260553
#	275939
#	290955
#
# Disc length: 4083 seconds
#
# Revision: 0
# Processed by: cddbd v1.5.2PL0 Copyright (c) Steve Scherf et al.
# Submitted via: dBpowerAMP V4.0
#
DISCID=480ff114
DTITLE=Barry Manilow - Greatest Songs Of The Sixties
DYEAR=1900
DGENRE=
TTITLE0=Can't Take My Eyes Off You
TTITLE1=Cherish/Windy
TTITLE2=Can't Help Falling In Love
TTITLE3=There's A Kind Of Hush
TTITLE4=Blue Velvet
TTITLE5=Raindrops Keep Falling On My Head
TTITLE6=And I Love Her
TTITLE7=This Guy's In Love With You
TTITLE8=Everybody Loves Somebody Sometime
TTITLE9=You've Lost That Lovin' Feelin'
TTITLE10=When I Fall In Love
TTITLE11=Strangers In The Night
TTITLE12=What The World Needs Now Is Love
TTITLE13=Moments To Remember
TTITLE14=It's All In The Game
TTITLE15=Unchained Melody
TTITLE16=Venus
TTITLE17=It's Not For Me To Say
TTITLE18=Sincerely - Teach Me Tonight
TTITLE19=Oh Mandy
EXTD=
EXTT0=
EXTT1=
EXTT2=
EXTT3=
EXTT4=
EXTT5=
EXTT6=
EXTT7=
EXTT8=
EXTT9=
EXTT10=
EXTT11=
EXTT12=
EXTT13=
EXTT14=
EXTT15=
EXTT16=
EXTT17=
EXTT18=
EXTT19=
PLAYORDER=
